<svg xmlns="http://www.w3.org/2000/svg" viewBox="0 0 305 305"><path d="M302.66,273.29H273.42a29.86,29.86,0,0,0,5.08-15.06l8.59-143.09h5.4a5.39,5.39,0,0,0,5.08-5.65V98.19c0-8.07-5.11-14.8-11.91-16.5l-9-19.91a5.05,5.05,0,0,0-4.55-3.12V19.12a5.39,5.39,0,0,1,5.08-5.64h15.25a5.39,5.39,0,0,0,5.08-5.65,5.38,5.38,0,0,0-5.08-5.64H277.23c-8.4,0-15.25,7.6-15.25,16.94V58.67H195.91a5.06,5.06,0,0,0-4.55,3.12l-9,19.91c-6.81,1.71-11.91,8.44-11.91,16.5v11.3a5.38,5.38,0,0,0,5.08,5.65H181l8.59,143.09a30,30,0,0,0,5.08,15.06H150a30,30,0,0,0,5.22-16.95V239.41a5.39,5.39,0,0,0-5.08-5.65h-6a18.37,18.37,0,0,0,.94-5.64,17.65,17.65,0,0,0-5.49-12.91,23.84,23.84,0,0,0,5.49-15.33V182.94a23.92,23.92,0,0,0-5.52-15.38,16.89,16.89,0,0,0,5.32-10.06,18.78,18.78,0,0,0-.76-8.45h6a5.39,5.39,0,0,0,5.08-5.65V126.46c0-21.81-16-39.54-35.58-39.54H63.74V53h45.75c8.4,0,15.25-7.6,15.25-16.94V7.84a5.38,5.38,0,0,0-5.08-5.64H68.83c-8.41,0-15.25,7.6-15.25,16.94V86.92H48.5c-19.62,0-35.58,17.74-35.58,39.54V143.4A5.39,5.39,0,0,0,18,149.05h6a17.56,17.56,0,0,0-.68,2.84,18.44,18.44,0,0,0,3.42,13.78,15.5,15.5,0,0,0,1.85,1.94,23.89,23.89,0,0,0-5.48,15.33v16.94a23.82,23.82,0,0,0,5.49,15.33,17.63,17.63,0,0,0-5.49,12.91,18.31,18.31,0,0,0,.93,5.64H18a5.39,5.39,0,0,0-5.08,5.65v16.94a30.07,30.07,0,0,0,5.21,16.95H7.83a5.38,5.38,0,0,0-5.08,5.64v11.3c0,9.34,6.92,16.95,15.43,16.95H292.32c8.51,0,15.43-7.61,15.43-16.95v-11.3a5.38,5.38,0,0,0-5.08-5.64ZM104.42,13.47h10.17V36.06a5.39,5.39,0,0,1-5.08,5.64h-5.08V13.46Zm-20.34,0H94.25V41.71H84.08ZM63.75,19.11a5.39,5.39,0,0,1,5.08-5.64h5.08V41.71H63.74V19.12ZM199.05,70h70l5.08,11.3H194Zm-13.3,33.89h-5.08V98.19a5.38,5.38,0,0,1,5.08-5.64h96.57a5.39,5.39,0,0,1,5.08,5.64v5.65H185.75Zm5.43,11.3h85.71l-8.54,142.33c-.52,8.87-7.21,15.82-15.21,15.82H214.93c-8,0-14.68-7-15.21-15.81ZM23.08,137.73v-11.3c0-15.57,11.4-28.25,25.42-28.25h71.17c14,0,25.42,12.67,25.42,28.25v11.3h-122Zm101.67,73.42H43.42c-5.6,0-10.17-5.06-10.17-11.3V182.91c0-6.23,4.56-11.3,10.17-11.3v11.3c0,9.34,6.84,16.94,15.25,16.94s15.25-7.6,15.25-16.94v-11.3H84.09c0,9.34,6.84,16.94,15.25,16.94s15.25-7.6,15.25-16.94h10.17c5.6,0,10.17,5.06,10.17,11.3v16.94c0,6.23-4.56,11.3-10.17,11.3Zm10.17,16.95a5.39,5.39,0,0,1-5.08,5.64H38.34a5.68,5.68,0,0,1,0-11.29h91.5A5.39,5.39,0,0,1,134.92,228.1ZM89.17,160.32H38.34a4.88,4.88,0,0,1-3.88-2,6.12,6.12,0,0,1-1.13-4.64A5.64,5.64,0,0,1,38.88,149h91a4.9,4.9,0,0,1,3.88,2,6.1,6.1,0,0,1,1.13,4.64,5.66,5.66,0,0,1-5.56,4.66Zm15.25,11.3a5.11,5.11,0,1,1-10.16,0h10.16Zm-40.67,0v11.3a5.39,5.39,0,0,1-5.08,5.64,5.39,5.39,0,0,1-5.08-5.64v-11.3H63.75ZM23.08,245h122v11.3c0,9.34-6.85,17-15.25,17H38.33c-8.41,0-15.25-7.61-15.25-17Zm274.49,45.19a5.47,5.47,0,0,1-5.26,5.65H18.17a5.47,5.47,0,0,1-5.26-5.65v-5.64H297.57Z" transform="translate(-2.75 -2.19)"/></svg>