<svg aria-hidden="true" style="position:absolute;width:0;height:0" xmlns="http://www.w3.org/2000/svg" overflow="hidden"><defs><symbol id="icon-logo" viewBox="0 0 32 32"><path d="M31.467 27.2h-3.068c.303-.401.498-.889.533-1.422l.901-13.511h.567a.533.533 0 00.533-.533v-1.067a1.6 1.6 0 00-1.25-1.558l-.94-1.88a.534.534 0 00-.477-.295V3.201c0-.294.239-.533.533-.533h1.6a.533.533 0 100-1.066h-1.6c-.882 0-1.6.718-1.6 1.6v3.733h-6.933a.533.533 0 00-.477.295l-.94 1.88a1.601 1.601 0 00-1.25 1.558v1.067c0 .294.238.533.533.533h.567l.901 13.511c.036.534.231 1.021.533 1.422h-4.682c.339-.447.547-.997.547-1.6v-1.6a.533.533 0 00-.533-.533h-.631c.06-.167.098-.346.098-.533a1.59 1.59 0 00-.576-1.219c.355-.381.576-.887.576-1.447v-1.6c0-.562-.223-1.07-.579-1.452a1.55 1.55 0 00.558-.95 1.608 1.608 0 00-.079-.798h.634a.533.533 0 00.533-.533v-1.6a3.737 3.737 0 00-3.733-3.733H6.399v-3.2h4.8c.882 0 1.6-.718 1.6-1.6V2.136a.533.533 0 00-.533-.533H6.933c-.882 0-1.6.718-1.6 1.6v6.4H4.8a3.738 3.738 0 00-3.733 3.733v1.6c0 .294.238.533.533.533h.626a1.6 1.6 0 00-.071.268 1.61 1.61 0 00.359 1.301c.059.069.126.127.194.184a2.119 2.119 0 00-.575 1.447v1.6c0 .56.221 1.067.576 1.447a1.592 1.592 0 00-.576 1.219c0 .188.038.366.098.533H1.6a.533.533 0 00-.533.533v1.6c0 .603.209 1.153.547 1.6H.533a.533.533 0 00-.533.533v1.067c0 .882.726 1.6 1.619 1.6h28.763c.893 0 1.619-.718 1.619-1.6v-1.067a.533.533 0 00-.533-.533zm-20.8-24.533h1.067V4.8a.533.533 0 01-.533.533h-.533V2.666zm-2.134 0H9.6v2.667H8.533V2.667zM6.4 3.2c0-.294.239-.533.533-.533h.533v2.667H6.399V3.201zM20.596 8h7.341l.533 1.067h-8.407L20.596 8zM19.2 11.2h-.533v-.533c0-.294.239-.533.533-.533h10.133c.294 0 .533.239.533.533v.533H19.199zm.57 1.067h8.993l-.896 13.439a1.603 1.603 0 01-1.596 1.494h-4.009c-.839 0-1.54-.656-1.596-1.493l-.896-13.44zM2.133 14.4v-1.067A2.67 2.67 0 014.8 10.666h7.467a2.67 2.67 0 012.667 2.667V14.4h-12.8zM12.8 21.333H4.267A1.068 1.068 0 013.2 20.266v-1.6c0-.588.478-1.067 1.067-1.067v1.067c0 .882.718 1.6 1.6 1.6s1.6-.718 1.6-1.6v-1.067h1.067c0 .882.718 1.6 1.6 1.6s1.6-.718 1.6-1.6h1.067c.588 0 1.067.478 1.067 1.067v1.6c0 .588-.478 1.067-1.067 1.067zm1.067 1.6a.533.533 0 01-.533.533h-9.6a.533.533 0 010-1.066h9.6c.294 0 .533.239.533.533zm-4.8-6.4H3.734a.532.532 0 01-.526-.626c.041-.247.296-.44.583-.44h9.543a.532.532 0 01.526.626c-.041.247-.296.44-.583.44h-4.21zm1.6 1.067a.533.533 0 01-1.066 0h1.067zm-4.267 0v1.067a.533.533 0 01-1.066 0V17.6h1.067zm-4.267 6.933h12.8V25.6c0 .882-.718 1.6-1.6 1.6h-9.6c-.882 0-1.6-.718-1.6-1.6v-1.067zm28.8 4.267a.544.544 0 01-.552.533H1.618a.544.544 0 01-.552-.533v-.533h29.867v.533z"/><path d="M24.267 14.933c-1.617 0-2.933 1.316-2.933 2.933s1.316 2.933 2.933 2.933c1.617 0 2.933-1.316 2.933-2.933s-1.316-2.933-2.933-2.933zm0 4.8c-1.029 0-1.867-.837-1.867-1.867s.837-1.867 1.867-1.867 1.867.837 1.867 1.867-.837 1.867-1.867 1.867zM26.133 22.4H22.4a.533.533 0 100 1.066h3.733a.533.533 0 100-1.066zM4.8 11.733h-.533a.533.533 0 100 1.066H4.8a.533.533 0 100-1.066zM7.467 12.267h-.533a.533.533 0 100 1.066h.533a.533.533 0 100-1.066zM10.133 11.733H9.6a.533.533 0 100 1.066h.533a.533.533 0 100-1.066z"/></symbol></defs><symbol id="icon-apple-store" viewBox="0 0 116 32"><path fill="var(--color1, #000)" d="M0 6.531A6.531 6.531 0 016.531 0h103.184a6.531 6.531 0 016.531 6.531V25.47a6.531 6.531 0 01-6.531 6.531H6.531A6.531 6.531 0 010 25.47V6.531z"/><path fill="var(--color2, #fff)" d="M44.1 6.946c.596 0 1.11.112 1.544.337.439.219.773.535 1.003.948.235.413.353.899.353 1.458s-.118 1.045-.353 1.458c-.23.408-.564.721-1.003.94-.434.214-.948.321-1.544.321h-1.701V6.946H44.1zm0 4.874c.705 0 1.243-.185 1.614-.556.371-.376.556-.901.556-1.575 0-.679-.188-1.209-.564-1.591-.371-.381-.906-.572-1.607-.572h-.987v4.295h.987zm5.713.659c-.402 0-.768-.091-1.097-.274a1.99 1.99 0 01-.768-.776 2.439 2.439 0 01-.274-1.175c0-.439.094-.825.282-1.16.193-.34.455-.598.784-.776.329-.183.697-.274 1.105-.274s.776.091 1.105.274c.329.178.588.434.776.768.193.334.29.724.29 1.168s-.099.836-.298 1.175c-.193.334-.457.593-.791.776s-.705.274-1.113.274zm0-.627c.256 0 .496-.06.721-.18s.405-.3.541-.541c.141-.24.212-.533.212-.878s-.068-.637-.204-.878a1.308 1.308 0 00-.533-.533 1.46 1.46 0 00-.713-.18c-.261 0-.502.06-.721.18-.214.115-.387.293-.517.533s-.196.533-.196.878c0 .35.063.645.188.886.131.24.303.421.517.541.214.115.449.172.705.172zm8.861-3.738l-1.34 4.295h-.737L55.563 9l-1.034 3.409h-.737l-1.348-4.295h.729l.987 3.605 1.066-3.605h.729l1.042 3.613.972-3.613h.705zm2.8-.079c.522 0 .946.159 1.27.478.324.313.486.768.486 1.364v2.531h-.705V9.979c0-.428-.107-.755-.321-.98-.214-.23-.507-.345-.878-.345-.376 0-.677.118-.901.353-.219.235-.329.577-.329 1.027v2.375h-.713V8.114h.713v.611c.141-.219.332-.389.572-.509.246-.12.515-.18.807-.18zm3.633-1.426v5.799h-.713V6.609h.713zm3.089 5.87c-.402 0-.768-.091-1.097-.274a1.99 1.99 0 01-.768-.776 2.439 2.439 0 01-.274-1.175c0-.439.094-.825.282-1.16.193-.34.455-.598.784-.776.329-.183.697-.274 1.105-.274s.776.091 1.105.274c.329.178.588.434.776.768.193.334.29.724.29 1.168s-.099.836-.298 1.175c-.193.334-.457.593-.791.776s-.705.274-1.113.274zm0-.627c.256 0 .496-.06.721-.18s.405-.3.541-.541c.141-.24.212-.533.212-.878s-.068-.637-.204-.878a1.308 1.308 0 00-.533-.533 1.46 1.46 0 00-.713-.18c-.261 0-.502.06-.721.18-.214.115-.387.293-.517.533s-.196.533-.196.878c0 .35.063.645.188.886.131.24.303.421.517.541.214.115.449.172.705.172zm2.873-1.607c0-.439.089-.823.266-1.152.178-.334.421-.593.729-.776a2.028 2.028 0 011.042-.274c.376 0 .703.081.98.243s.483.366.619.611v-.784h.721v4.295h-.721v-.799c-.141.251-.353.46-.635.627a1.89 1.89 0 01-.972.243c-.381 0-.726-.094-1.034-.282s-.551-.452-.729-.791a2.461 2.461 0 01-.266-1.16zm3.637.008c0-.324-.065-.606-.196-.846s-.308-.423-.533-.549c-.219-.131-.462-.196-.729-.196s-.509.063-.729.188c-.219.125-.394.308-.525.549s-.196.522-.196.846c0 .329.065.617.196.862.131.24.306.426.525.556.219.125.462.188.729.188s.509-.063.729-.188c.225-.131.402-.316.533-.556.131-.246.196-.53.196-.854zm1.659-.008c0-.439.089-.823.266-1.152.178-.334.421-.593.729-.776a2.041 2.041 0 011.05-.274c.334 0 .645.078.933.235.287.152.507.353.658.603V6.608h.721v5.799h-.721V11.6c-.141.256-.35.468-.627.635a1.89 1.89 0 01-.972.243c-.381 0-.729-.094-1.042-.282-.308-.188-.551-.452-.729-.791s-.266-.726-.266-1.16zm3.636.008c0-.324-.065-.606-.196-.846s-.308-.423-.533-.549c-.219-.131-.462-.196-.729-.196s-.509.063-.729.188c-.219.125-.394.308-.525.549s-.196.522-.196.846c0 .329.065.617.196.862.131.24.306.426.525.556.219.125.462.188.729.188s.509-.063.729-.188c.225-.131.402-.316.533-.556.131-.246.196-.53.196-.854zm6.492 2.21a2.78 2.78 0 01-1.387-.353 2.67 2.67 0 01-.995-.995c-.24-.428-.361-.909-.361-1.442s.12-1.011.361-1.434c.246-.428.577-.76.995-.995.418-.24.88-.361 1.387-.361.512 0 .977.12 1.395.361.418.235.747.564.987.987s.361.904.361 1.442c0 .538-.12 1.019-.361 1.442s-.569.755-.987.995a2.797 2.797 0 01-1.395.353zm0-.619a2 2 0 001.027-.266c.308-.178.549-.431.721-.76.178-.329.266-.711.266-1.144 0-.439-.089-.82-.266-1.144-.172-.329-.41-.583-.713-.76s-.648-.266-1.034-.266c-.387 0-.731.089-1.034.266s-.543.431-.721.76c-.172.324-.259.705-.259 1.144 0 .434.086.815.259 1.144.178.329.418.583.721.76.308.178.653.266 1.034.266zm5.777-3.809c.522 0 .946.159 1.27.478.324.313.486.768.486 1.364v2.531h-.705V9.979c0-.428-.107-.755-.321-.98-.214-.23-.507-.345-.878-.345-.376 0-.677.118-.901.353-.219.235-.329.577-.329 1.027v2.375h-.713V8.114h.713v.611c.141-.219.332-.389.572-.509.246-.12.515-.18.807-.18zm8.371-1.089v.58h-1.489v4.882h-.713V7.526h-1.497v-.58h3.699zm3.01 1.089c.324 0 .617.071.878.212.261.136.465.342.611.619.151.277.227.614.227 1.011v2.531h-.705V9.979c0-.428-.107-.755-.321-.98-.214-.23-.507-.345-.878-.345-.376 0-.677.118-.901.353-.219.235-.329.577-.329 1.027v2.375h-.713V6.61h.713v2.116c.141-.219.334-.389.58-.509.251-.12.53-.18.839-.18zm6.799 2.061c0 .136-.008.28-.023.431h-3.433c.026.423.17.755.431.995.266.235.588.353.964.353.308 0 .564-.071.768-.212.209-.146.355-.34.439-.58h.768c-.115.413-.345.75-.69 1.011-.345.256-.773.384-1.285.384-.407 0-.773-.091-1.097-.274a1.951 1.951 0 01-.752-.776c-.183-.34-.274-.731-.274-1.175s.089-.833.266-1.168c.178-.334.426-.59.745-.768a2.223 2.223 0 011.113-.274c.407 0 .768.089 1.081.266s.554.423.721.737c.172.308.259.658.259 1.05zm-.736-.149c0-.272-.06-.504-.18-.697a1.136 1.136 0 00-.494-.447 1.48 1.48 0 00-.682-.157c-.361 0-.669.115-.925.345-.251.23-.394.549-.431.956h2.712zM45.006 23.518h-2.661l-.457 1.298H40.8l2.277-6.363h1.207l2.277 6.363h-1.097l-.457-1.298zm-.292-.85l-1.033-2.953-1.042 2.953h2.075zm3.879-2.149c.177-.232.418-.427.722-.585s.649-.238 1.033-.238c.439 0 .838.11 1.198.329.366.213.652.515.859.905s.311.838.311 1.344-.104.96-.311 1.362a2.36 2.36 0 01-.859.933 2.26 2.26 0 01-1.198.329c-.384 0-.725-.076-1.024-.229a2.36 2.36 0 01-.731-.585v3.127h-1.042v-7.433h1.042v.741zm3.063 1.756c0-.347-.073-.646-.219-.896a1.393 1.393 0 00-.567-.576 1.507 1.507 0 00-1.5 0 1.535 1.535 0 00-.567.585c-.14.256-.21.558-.21.905s.07.652.21.914c.146.256.335.451.567.585a1.507 1.507 0 001.5 0c.238-.14.427-.341.567-.603.146-.262.219-.567.219-.914zm3.133-1.756c.177-.232.417-.427.722-.585s.649-.238 1.033-.238c.439 0 .838.11 1.198.329.366.213.652.515.859.905s.311.838.311 1.344c0 .506-.104.96-.311 1.362a2.36 2.36 0 01-.859.933 2.26 2.26 0 01-1.198.329c-.384 0-.725-.076-1.024-.229a2.36 2.36 0 01-.731-.585v3.127h-1.042v-7.433h1.042v.741zm3.063 1.756c0-.347-.073-.646-.219-.896a1.393 1.393 0 00-.567-.576 1.507 1.507 0 00-1.5 0 1.535 1.535 0 00-.567.585c-.14.256-.21.558-.21.905s.07.652.21.914c.146.256.335.451.567.585a1.507 1.507 0 001.5 0c.238-.14.427-.341.567-.603.146-.262.219-.567.219-.914zm6.56 2.605a2.9 2.9 0 01-1.152-.219c-.341-.152-.609-.366-.805-.64s-.293-.594-.293-.96h1.115c.024.274.131.5.32.677.195.177.466.265.814.265.36 0 .64-.085.841-.256a.861.861 0 00.302-.677.724.724 0 00-.192-.521 1.205 1.205 0 00-.466-.311 6.877 6.877 0 00-.768-.238 8.022 8.022 0 01-1.015-.329c-.256-.116-.475-.293-.658-.53s-.274-.555-.274-.951c0-.366.091-.686.274-.96s.439-.485.768-.631c.329-.146.71-.219 1.143-.219.616 0 1.119.155 1.509.466.396.305.616.725.658 1.262h-1.152c-.018-.232-.128-.43-.329-.594s-.466-.247-.795-.247c-.299 0-.542.076-.731.229s-.283.372-.283.658c0 .195.058.357.174.485.122.122.274.219.457.293s.433.152.75.238c.421.116.762.232 1.024.347.268.116.494.296.677.539.189.238.283.558.283.96 0 .323-.088.628-.265.914-.17.287-.424.518-.759.695-.329.171-.719.256-1.17.256zm4.64-4.251v2.789c0 .189.043.326.128.411.091.079.244.119.457.119h.64v.869h-.823c-.469 0-.829-.11-1.079-.329S68 23.912 68 23.418v-2.789h-.594v-.85H68v-1.253h1.051v1.253h1.225v.85h-1.225zm4.371 4.27c-.475 0-.905-.107-1.289-.32a2.366 2.366 0 01-.905-.914c-.219-.396-.329-.853-.329-1.371 0-.512.113-.966.338-1.362s.534-.701.923-.914c.391-.213.826-.32 1.307-.32s.918.107 1.307.32c.391.213.698.518.923.914s.338.85.338 1.362-.116.966-.347 1.362a2.425 2.425 0 01-.951.923c-.396.213-.835.32-1.317.32zm0-.906c.268 0 .519-.064.75-.192.238-.128.43-.32.576-.576s.219-.567.219-.933c0-.366-.07-.674-.21-.923-.14-.256-.326-.448-.558-.576s-.481-.192-.75-.192c-.268 0-.518.064-.75.192-.225.128-.405.32-.539.576-.134.25-.201.558-.201.923 0 .543.137.963.411 1.262.281.293.631.439 1.051.439zm4.688-3.483c.152-.256.353-.454.603-.594.256-.146.558-.219.905-.219v1.079h-.265c-.408 0-.719.104-.933.311-.207.207-.311.567-.311 1.079v2.651h-1.042v-5.038h1.042v.731zm7.083 1.664c0 .189-.012.36-.037.512h-3.849c.031.402.18.725.448.969s.598.366.987.366c.561 0 .957-.235 1.189-.704h1.125c-.152.463-.43.844-.832 1.143-.396.293-.89.439-1.481.439-.481 0-.914-.107-1.298-.32a2.385 2.385 0 01-.896-.914c-.214-.396-.32-.853-.32-1.371s.104-.972.311-1.362c.214-.396.509-.701.887-.914a2.67 2.67 0 011.317-.32c.475 0 .899.104 1.271.311s.662.5.869.878c.207.372.311.802.311 1.289zm-1.088-.329c-.006-.384-.143-.692-.411-.923s-.6-.347-.997-.347c-.36 0-.667.116-.923.347-.256.226-.408.533-.457.923h2.789zM16.483 27.428c-3.555-.019-6.495-6.765-6.495-10.2 0-5.612 4.529-6.84 6.274-6.84.787 0 1.626.287 2.367.541.518.177 1.054.36 1.352.36.178 0 .599-.156.97-.292.791-.293 1.776-.657 2.923-.657h.007c.856 0 3.452.175 5.013 2.354l.366.511-.526.369c-.752.527-2.123 1.489-2.123 3.394 0 2.256 1.553 3.124 2.3 3.542.329.184.67.374.67.79 0 .271-2.329 6.096-5.711 6.096-.828 0-1.413-.231-1.929-.435-.522-.206-.972-.384-1.717-.384-.377 0-.854.166-1.359.342-.69.239-1.471.511-2.358.511h-.023zM24.232 5.224c.088 2.952-2.183 5-4.452 4.872-.374-2.356 2.268-4.872 4.452-4.872z"/></symbol><symbol id="icon-arrow-right" viewBox="0 0 48 32"><path d="M45.867 14.471L32.029.633a2.163 2.163 0 00-3.058 3.058l10.147 10.147H2.162a2.162 2.162 0 000 4.324h36.956L28.972 28.309a2.163 2.163 0 003.058 3.058l13.837-13.838a2.161 2.161 0 000-3.058z"/></symbol><symbol id="icon-behance" viewBox="0 0 48 32"><path d="M42.774 5.965H31.048V3.052h11.726v2.913zM24.851 17.906c.755 1.173 1.134 2.599 1.134 4.266 0 1.73-.426 3.278-1.294 4.646a8.03 8.03 0 01-2.061 2.286c-.928.712-2.025 1.203-3.285 1.466-1.266.263-2.635.391-4.11.391H2.121V1.847h14.06c3.544.056 6.057 1.083 7.54 3.102.89 1.236 1.331 2.72 1.331 4.444 0 1.782-.448 3.205-1.345 4.286-.5.607-1.238 1.16-2.217 1.657 1.483.544 2.608 1.396 3.36 2.57zM8.837 13.325h6.162c1.266 0 2.29-.243 3.077-.722.788-.481 1.182-1.335 1.182-2.562 0-1.353-.52-2.252-1.564-2.684-.897-.302-2.045-.457-3.436-.457H8.837v6.424zm11.013 8.43c0-1.512-.619-2.556-1.852-3.119-.689-.317-1.663-.482-2.911-.494h-6.25V25.9h6.151c1.265 0 2.243-.164 2.949-.511 1.274-.632 1.913-1.839 1.913-3.634zm27.274-4.735c.144.953.208 2.335.179 4.141H32.12c.085 2.096.807 3.561 2.181 4.4.826.526 1.829.783 3.005.783 1.239 0 2.249-.313 3.026-.956.423-.342.797-.824 1.118-1.43h5.567c-.148 1.236-.816 2.49-2.022 3.769-1.865 2.025-4.481 3.046-7.842 3.046-2.778 0-5.224-.861-7.347-2.569-2.118-1.712-3.18-4.496-3.18-8.353 0-3.617.956-6.388 2.872-8.314 1.921-1.931 4.401-2.892 7.46-2.892 1.812 0 3.446.323 4.905.974 1.453.653 2.654 1.679 3.598 3.089.854 1.242 1.406 2.678 1.663 4.313zm-5.481.544c-.099-1.449-.585-2.546-1.458-3.295-.866-.754-1.944-1.13-3.231-1.13-1.404 0-2.483.402-3.255 1.195-.774.794-1.255 1.868-1.453 3.231h9.397z"/></symbol><symbol id="icon-facebook" viewBox="0 0 18 32"><path d="M16.009.006L12.019 0c-4.483 0-7.38 2.972-7.38 7.572v3.491H.627a.627.627 0 00-.627.628v5.059c0 .347.281.627.627.627h4.012v12.765c0 .346.281.627.627.627H10.5a.627.627 0 00.627-.627V17.377h4.691a.627.627 0 00.627-.627l.002-5.059a.628.628 0 00-.628-.628h-4.692v-2.96c0-1.423.339-2.145 2.192-2.145l2.688-.001a.627.627 0 00.627-.627V.633a.627.627 0 00-.626-.627z"/></symbol><symbol id="icon-geotag" viewBox="0 0 27 32"><path d="M11.963 31.354C1.873 18.189 0 16.838 0 12 0 5.373 5.97 0 13.333 0s13.333 5.373 13.333 12c0 4.838-1.873 6.189-11.963 19.354-.662.861-2.078.861-2.74 0zM13.333 17c3.068 0 5.556-2.239 5.556-5s-2.487-5-5.556-5-5.556 2.239-5.556 5 2.487 5 5.556 5z"/></symbol><symbol id="icon-google-play" viewBox="0 0 116 32"><path fill="var(--color1, #000)" d="M0 6.531A6.531 6.531 0 016.531 0h103.184a6.531 6.531 0 016.531 6.531V25.47a6.531 6.531 0 01-6.531 6.531H6.531A6.531 6.531 0 010 25.47V6.531z"/><path fill="var(--color2, #fff)" d="M51.109 8.529a1.675 1.675 0 00-.658-.737c-.287-.178-.622-.266-1.003-.266s-.726.089-1.034.266a1.856 1.856 0 00-.721.752c-.172.324-.259.7-.259 1.129s.086.805.259 1.129c.178.324.418.575.721.752.308.172.653.259 1.034.259.533 0 .972-.159 1.317-.478s.546-.75.603-1.293h-2.179v-.58h2.939v.549a2.744 2.744 0 01-.423 1.238c-.24.371-.556.666-.948.886a2.686 2.686 0 01-1.309.321 2.78 2.78 0 01-1.387-.353 2.67 2.67 0 01-.995-.995c-.24-.423-.361-.901-.361-1.434s.12-1.011.361-1.434c.246-.428.577-.76.995-.995.418-.24.88-.361 1.387-.361.58 0 1.092.144 1.536.431.449.287.776.692.98 1.215h-.854zm2.674-1.003v1.826h1.991v.588h-1.991v1.881h2.226v.588H53.07v-5.47h2.939v.588h-2.226zm6.667-.58v.58h-1.489v4.882h-.713V7.526h-1.497v-.58h3.699zm3.68 0v5.462h-.713V6.946h.713zm4.578 0v.58h-1.489v4.882h-.713V7.526h-1.497v-.58h3.699zm5.443 5.517a2.78 2.78 0 01-1.387-.353 2.67 2.67 0 01-.995-.995c-.24-.428-.361-.909-.361-1.442s.12-1.011.361-1.434c.246-.428.577-.76.995-.995.418-.24.88-.361 1.387-.361.512 0 .977.12 1.395.361.418.235.747.564.987.987s.361.904.361 1.442c0 .538-.12 1.019-.361 1.442s-.569.755-.987.995a2.797 2.797 0 01-1.395.353zm0-.619a2 2 0 001.027-.266c.308-.178.549-.431.721-.76.178-.329.266-.711.266-1.144 0-.439-.089-.82-.266-1.144-.172-.329-.41-.583-.713-.76s-.648-.266-1.034-.266c-.387 0-.731.089-1.034.266s-.543.431-.721.76c-.172.324-.259.705-.259 1.144 0 .434.086.815.259 1.144.178.329.418.583.721.76.308.178.653.266 1.034.266zm7.979.564h-.713l-2.868-4.349v4.349h-.713v-5.47h.713l2.868 4.342V6.938h.713v5.47zM51.652 20.944a1.649 1.649 0 00-.686-.713 2.032 2.032 0 00-1.015-.247c-.421 0-.795.095-1.125.283s-.588.457-.777.805c-.183.347-.274.75-.274 1.207s.091.863.274 1.216c.189.347.448.616.777.805s.704.283 1.125.283c.567 0 1.027-.159 1.381-.475s.57-.747.649-1.289h-2.386v-.832h3.502v.814a3.098 3.098 0 01-.53 1.362 3.11 3.11 0 01-1.106.997 3.12 3.12 0 01-1.509.366 3.319 3.319 0 01-1.637-.411 3.157 3.157 0 01-1.179-1.161c-.286-.494-.43-1.051-.43-1.673s.143-1.179.43-1.673a3.104 3.104 0 011.179-1.152c.5-.28 1.045-.421 1.637-.421.677 0 1.277.168 1.801.503.53.329.914.799 1.152 1.408h-1.253zm4.658 4.608c-.475 0-.905-.107-1.289-.32a2.366 2.366 0 01-.905-.914c-.219-.396-.329-.853-.329-1.371 0-.512.113-.966.338-1.362s.533-.701.923-.914c.39-.213.826-.32 1.307-.32s.917.107 1.307.32c.39.213.698.518.923.914s.338.85.338 1.362-.116.966-.347 1.362a2.432 2.432 0 01-.951.923c-.396.213-.835.32-1.317.32zm0-.905c.268 0 .518-.064.75-.192.238-.128.43-.32.576-.576s.219-.567.219-.933c0-.366-.07-.674-.21-.923-.14-.256-.326-.448-.558-.576s-.481-.192-.75-.192c-.268 0-.518.064-.75.192-.225.128-.405.32-.539.576-.134.25-.201.558-.201.923 0 .543.137.963.411 1.262.28.293.631.439 1.051.439zm5.83.905c-.475 0-.905-.107-1.289-.32a2.366 2.366 0 01-.905-.914c-.219-.396-.329-.853-.329-1.371 0-.512.113-.966.338-1.362s.533-.701.923-.914c.39-.213.826-.32 1.307-.32s.917.107 1.307.32c.39.213.698.518.923.914s.338.85.338 1.362-.116.966-.347 1.362a2.432 2.432 0 01-.951.923c-.396.213-.835.32-1.317.32zm0-.905c.268 0 .518-.064.75-.192.238-.128.43-.32.576-.576s.219-.567.219-.933c0-.366-.07-.674-.21-.923-.14-.256-.326-.448-.558-.576s-.482-.192-.75-.192-.518.064-.75.192a1.37 1.37 0 00-.539.576c-.134.25-.201.558-.201.923 0 .543.137.963.411 1.262.28.293.631.439 1.051.439zm5.675-4.298c.39 0 .734.079 1.033.238.304.152.542.344.713.576v-.731h1.051v5.12c0 .463-.098.875-.293 1.234a2.099 2.099 0 01-.85.859c-.366.207-.805.311-1.317.311-.683 0-1.25-.162-1.701-.485a1.758 1.758 0 01-.768-1.298h1.033c.079.262.247.472.503.631.262.165.573.247.933.247.421 0 .759-.128 1.015-.384.262-.256.393-.628.393-1.115v-.841a2.146 2.146 0 01-1.746.841c-.439 0-.841-.11-1.207-.329a2.428 2.428 0 01-.859-.933c-.208-.402-.311-.856-.311-1.362s.103-.954.311-1.344a2.32 2.32 0 012.066-1.234zm1.746 2.597c0-.347-.073-.649-.219-.905a1.472 1.472 0 00-1.308-.786c-.268 0-.519.067-.75.201-.232.128-.421.32-.567.576-.14.25-.21.549-.21.896s.07.652.21.914c.146.262.335.463.567.603a1.504 1.504 0 001.5 0 1.48 1.48 0 00.558-.585c.146-.262.219-.567.219-.914zm3.463-4.242v6.766h-1.042v-6.766h1.042zm5.985 4.123c0 .189-.012.36-.037.512h-3.849c.031.402.18.725.448.969s.598.366.987.366c.561 0 .957-.235 1.189-.704h1.125c-.152.463-.43.844-.832 1.143-.396.293-.889.439-1.481.439-.481 0-.914-.107-1.298-.32a2.392 2.392 0 01-.896-.914c-.213-.396-.32-.853-.32-1.371s.104-.972.311-1.362c.214-.396.509-.701.887-.914a2.67 2.67 0 011.317-.32c.475 0 .899.104 1.271.311s.662.5.869.878c.208.372.311.802.311 1.289zm-1.088-.329c-.006-.384-.143-.692-.411-.923s-.6-.347-.997-.347a1.33 1.33 0 00-.923.347c-.256.226-.408.533-.457.923h2.789zm8.933-1.49c0 .323-.076.628-.229.914s-.396.521-.731.704c-.336.177-.765.265-1.289.265h-1.152v2.578h-1.042v-6.354h2.194c.487 0 .899.085 1.234.256.341.165.594.39.759.677.17.287.256.607.256.96zm-2.249 1.033c.396 0 .692-.088.887-.265.195-.183.293-.439.293-.768 0-.695-.393-1.042-1.179-1.042h-1.152v2.075h1.152zm4.285-3.337v6.766h-1.042v-6.766h1.042zm1.021 4.224c0-.506.104-.954.311-1.344a2.328 2.328 0 012.066-1.234c.396 0 .741.079 1.033.238.299.152.537.344.713.576v-.731h1.051v5.038h-1.051v-.75c-.176.238-.417.436-.722.594s-.652.238-1.042.238c-.432 0-.829-.11-1.189-.329a2.443 2.443 0 01-.859-.933 2.932 2.932 0 01-.311-1.362zm4.123.018c0-.347-.073-.649-.219-.905a1.472 1.472 0 00-1.308-.786c-.268 0-.518.067-.75.201-.231.128-.421.32-.567.576-.14.25-.21.549-.21.896s.071.652.21.914c.146.262.336.463.567.603a1.507 1.507 0 001.5 0 1.48 1.48 0 00.558-.585c.146-.262.219-.567.219-.914zm6.955-2.514l-3.09 7.406H96.82l1.024-2.45-1.984-4.955h1.161l1.417 3.84 1.472-3.84h1.079zM12.751 6.161a1.923 1.923 0 00-1.847-.088l9.959 9.99 3.256-3.275L12.75 6.161zm-2.762.836a2.025 2.025 0 00-.193.867v18.274c0 .306.068.598.195.859l9.956-10.012L9.99 6.997zm10.876 10.909l-9.943 10c.264.122.545.176.825.176.346 0 .691-.083 1.004-.271l11.371-6.637-3.257-3.268zm7.585-2.594a.075.075 0 00-.012-.007l-3.157-1.84-3.499 3.519 3.502 3.512 3.167-1.848c.587-.357.938-.981.938-1.668s-.351-1.311-.938-1.668z"/></symbol><symbol id="icon-linkedin" viewBox="0 0 34 32"><path d="M8.644 11.116H2.453a.497.497 0 00-.497.497v19.888c0 .275.223.497.497.497h6.191a.497.497 0 00.497-.497V11.613a.497.497 0 00-.497-.497zM5.552 1.23c-2.253 0-4.085 1.831-4.085 4.081S3.3 9.393 5.552 9.393c2.251 0 4.082-1.831 4.082-4.082S7.803 1.23 5.552 1.23zM24.392 10.623c-2.486 0-4.324 1.069-5.439 2.283v-1.292a.497.497 0 00-.497-.497h-5.929a.497.497 0 00-.497.497v19.888c0 .275.223.497.497.497h6.177a.497.497 0 00.497-.497v-9.84c0-3.316.901-4.608 3.212-4.608 2.517 0 2.717 2.071 2.717 4.778v9.669c0 .275.223.497.497.497h6.179a.497.497 0 00.497-.497V20.592c0-4.93-.94-9.971-7.913-9.971z"/></symbol><symbol id="icon-logo-text" viewBox="0 0 99 32"><path d="M16.598 15.288c0 .473-.03.965-.089 1.477H5.078c.079 1.024.404 1.812.975 2.363.591.532 1.31.798 2.156.798 1.26 0 2.137-.532 2.629-1.595h5.376a7.289 7.289 0 01-1.506 2.924c-.709.866-1.605 1.546-2.688 2.038s-2.294.738-3.633.738c-1.615 0-3.052-.345-4.313-1.034s-2.245-1.674-2.954-2.954c-.709-1.28-1.063-2.777-1.063-4.49s.345-3.21 1.034-4.49c.709-1.28 1.694-2.265 2.954-2.954s2.708-1.034 4.342-1.034c1.595 0 3.013.335 4.254 1.004s2.206 1.625 2.895 2.865c.709 1.241 1.063 2.688 1.063 4.342zm-5.169-1.329c0-.866-.295-1.556-.886-2.068s-1.329-.768-2.215-.768c-.847 0-1.566.246-2.156.738-.571.492-.926 1.191-1.063 2.097h6.321zm17.581 9.836l-3.161-4.578-2.658 4.578h-5.465l5.435-8.418-5.583-8.064h5.671l3.161 4.549 2.658-4.549h5.465l-5.524 8.3 5.671 8.182h-5.671zM41.679 9.646c.492-.768 1.172-1.388 2.038-1.861s1.881-.709 3.042-.709c1.359 0 2.59.345 3.692 1.034s1.969 1.674 2.599 2.954c.65 1.28.975 2.767.975 4.46s-.325 3.19-.975 4.49c-.63 1.28-1.497 2.274-2.599 2.983-1.103.689-2.334 1.034-3.692 1.034-1.142 0-2.156-.236-3.042-.709-.866-.473-1.546-1.083-2.038-1.831v10.161h-5.051V7.312h5.051v2.334zm7.207 5.878c0-1.26-.354-2.245-1.063-2.954-.689-.729-1.546-1.093-2.57-1.093-1.004 0-1.861.364-2.57 1.093-.689.729-1.034 1.723-1.034 2.983s.345 2.255 1.034 2.983c.709.729 1.566 1.093 2.57 1.093s1.861-.364 2.57-1.093c.709-.748 1.063-1.753 1.063-3.013zm10.33-9.925c-.886 0-1.615-.256-2.186-.768a2.607 2.607 0 01-.827-1.95c0-.788.276-1.438.827-1.95.571-.532 1.3-.798 2.186-.798.866 0 1.575.266 2.127.798.571.512.857 1.162.857 1.95 0 .768-.286 1.418-.857 1.95-.551.512-1.26.768-2.127.768zm2.511 1.713v16.482h-5.051V7.312h5.051zm2.656 8.242c0-1.713.345-3.21 1.034-4.49.709-1.28 1.684-2.265 2.924-2.954 1.26-.689 2.698-1.034 4.313-1.034 2.068 0 3.791.542 5.169 1.625 1.398 1.083 2.314 2.609 2.747 4.578h-5.376c-.453-1.26-1.329-1.89-2.629-1.89-.926 0-1.664.364-2.215 1.093-.551.709-.827 1.733-.827 3.072s.276 2.373.827 3.102c.551.709 1.29 1.063 2.215 1.063 1.3 0 2.176-.63 2.629-1.89h5.376c-.433 1.93-1.349 3.446-2.747 4.549s-3.121 1.654-5.169 1.654c-1.615 0-3.052-.345-4.313-1.034-1.241-.689-2.215-1.674-2.924-2.954-.689-1.28-1.034-2.777-1.034-4.49zm34.426-.266c0 .473-.03.965-.089 1.477H87.289c.079 1.024.404 1.812.975 2.363.591.532 1.31.798 2.156.798 1.26 0 2.137-.532 2.629-1.595h5.376a7.289 7.289 0 01-1.506 2.924c-.709.866-1.605 1.546-2.688 2.038s-2.294.738-3.633.738c-1.615 0-3.052-.345-4.313-1.034s-2.245-1.674-2.954-2.954c-.709-1.28-1.063-2.777-1.063-4.49s.345-3.21 1.034-4.49c.709-1.28 1.694-2.265 2.954-2.954s2.708-1.034 4.342-1.034c1.595 0 3.013.335 4.254 1.004s2.206 1.625 2.895 2.865c.709 1.241 1.063 2.688 1.063 4.342zm-5.169-1.329c0-.866-.295-1.556-.886-2.068s-1.329-.768-2.215-.768c-.847 0-1.566.246-2.156.738-.571.492-.926 1.191-1.063 2.097h6.321z"/></symbol><symbol id="icon-moto-bike" viewBox="0 0 42 32"><path d="M18.097 30.306c-.218 0-.432.089-.586.243s-.243.368-.243.585a.834.834 0 00.829.829.833.833 0 00.828-.829.833.833 0 00-.828-.828z"/><path d="M34.591 16.402l-1.93-8.719c.521-.071.98-.335 1.303-.719.381.238.831.377 1.313.377h1.656a.828.828 0 00.828-.828V3.2a.828.828 0 00-.828-.828h-1.656c-.496 0-.959.147-1.347.399a2.063 2.063 0 00-1.549-.7h-4.888c-.878 0-1.63.551-1.929 1.325h-1.963c-1.187 0-2.153.966-2.153 2.153s.966 2.153 2.153 2.153h4.263v1.669a.828.828 0 001.656 0V7.702h1.449l2.079 9.392-3.934 7.007a2.432 2.432 0 01-2.116 1.237h-9.821c-.411-3.448-3.351-6.131-6.908-6.131a6.888 6.888 0 00-4.294 1.483l-.005.004a6.919 6.919 0 00-2.611 4.644H1.658c.108-5.954 4.985-10.763 10.963-10.763h5.875c.464 0 .841.377.841.841v7.437c0 .457.371.828.828.828h4.407a4.938 4.938 0 004.939-4.934l.004-2.751a.828.828 0 00-.827-.829h-.001a.828.828 0 00-.828.827l-.004 2.752a3.284 3.284 0 01-3.283 3.279h-3.578v-6.609c0-.424-.107-.824-.294-1.174a2.485 2.485 0 001.246-2.152 2.487 2.487 0 00-2.484-2.484h-3.023c-.291 0-.569.05-.828.142V2.484A2.487 2.487 0 0013.127 0H7.785C3.912 0 .692 2.843.1 6.552a.827.827 0 00-.038.25l.001.015a7.92 7.92 0 00-.06.967v4.308c0 1.244.919 2.277 2.114 2.457l1.834 1.834a12.586 12.586 0 00-3.947 9.16v.626c0 .457.371.828.828.828h4.654a.82.82 0 00-.016.166 4.78 4.78 0 001.177 3.144H.832a.828.828 0 000 1.656h9.345l.096.003a4.809 4.809 0 004.803-4.803.827.827 0 00-.017-.166h11.942a4.09 4.09 0 003.286-1.659h1.049a4.792 4.792 0 00.816 4.968H21.413a.828.828 0 000 1.656h14.27l.096.003a4.809 4.809 0 004.803-4.803c0-.632-.125-1.251-.361-1.824h1.355a.828.828 0 00.828-.828c0-4.371-3.476-7.946-7.809-8.106zm-18.153-5.139h3.023a.829.829 0 010 1.656h-3.023a.829.829 0 010-1.656zM1.656 7.783c0-.051.003-.102.004-.153h9.062a.828.828 0 000-1.656H1.929a6.137 6.137 0 015.854-4.317h5.342c.457 0 .828.371.828.828v9.606a.829.829 0 01-.828.828H2.485h-.001a.83.83 0 01-.828-.828V7.783zm2.828 6.792h1.895c-.398.227-.782.476-1.151.744l-.744-.744zm8.932 12.586a3.15 3.15 0 01-3.115 3.146l-.032-.002h-.095a3.15 3.15 0 01-3.051-3.144.907.907 0 00-.016-.166h6.327a.82.82 0 00-.017.166zM5.03 25.339a5.266 5.266 0 011.963-3.342L7 21.992a5.248 5.248 0 013.268-1.127 5.312 5.312 0 015.238 4.475H5.03zm30.248-21.31h.828v1.656h-.828a.828.828 0 010-1.656zM23.105 5.55c0-.274.223-.497.497-.497h1.824v.582c0 .141.014.279.041.411h-1.866a.498.498 0 01-.497-.497zm5.587.497h-1.198a.412.412 0 01-.412-.411V4.14c0-.227.185-.411.412-.411h4.888c.227 0 .412.185.412.411v1.496a.412.412 0 01-.412.411h-3.69zm10.23 21.114a3.15 3.15 0 01-3.115 3.146l-.032-.002h-.095a3.15 3.15 0 01-3.051-3.144c0-.658.205-1.294.583-1.824h5.128c.378.53.583 1.166.583 1.824zM31.25 23.68l3.158-5.624a6.463 6.463 0 016.282 5.624h-9.44z"/><path d="M28.692 13.512a.828.828 0 000-1.656h-.003a.828.828 0 10.003 1.656z"/></symbol><symbol id="icon-people-at-the-table" viewBox="0 0 32 32"><path d="M3.921 30.933a.63.63 0 00-.884 0 .625.625 0 10.884 0zM23.317 26.516a.63.63 0 00-.884 0 .63.63 0 000 .884.63.63 0 00.884 0 .63.63 0 000-.884z"/><path d="M29.984 10.101c.473-.475.766-1.13.766-1.851v-.5c0-1.447-1.177-2.625-2.625-2.625S25.5 6.303 25.5 7.75v.5c0 .722.293 1.376.766 1.851a3.885 3.885 0 00-1.966 2.774h-2.863a1.877 1.877 0 00-1.767 2.5h-7.34a1.877 1.877 0 00-1.768-2.5H7.699a3.888 3.888 0 00-1.966-2.774c.473-.475.766-1.13.766-1.851v-.5c0-1.447-1.178-2.625-2.625-2.625S1.249 6.303 1.249 7.75v.5c0 .722.293 1.376.766 1.851A3.878 3.878 0 00-.001 13.5v7.01a3.555 3.555 0 003.552 3.552h4.948v5.969c0 .254.049.496.136.719h-2.47a.625.625 0 000 1.25h22.354a.625.625 0 000-1.25h-5.157c.088-.223.136-.465.136-.719v-.719a.625.625 0 00-1.25 0v.719a.72.72 0 01-1.438 0v-7.89c0-.974.792-1.766 1.766-1.766h8.172v.135a2.305 2.305 0 01-2.302 2.302h-5.573a.625.625 0 00-.625.625v1a.625.625 0 001.25 0v-.375h4.948a3.555 3.555 0 003.552-3.552V13.5c0-1.463-.815-2.74-2.016-3.399zM26.75 7.75c0-.758.617-1.375 1.375-1.375S29.5 6.992 29.5 7.75v.5c0 .758-.617 1.375-1.375 1.375S26.75 9.008 26.75 8.25v-.5zm-24.25 0c0-.758.617-1.375 1.375-1.375S5.25 6.992 5.25 7.75v.5c0 .758-.617 1.375-1.375 1.375S2.5 9.008 2.5 8.25v-.5zM1.25 13.5c0-1.447 1.178-2.625 2.625-2.625S6.5 12.053 6.5 13.5c0 .345.28.625.625.625h3.438a.625.625 0 010 1.25h-3.64a2.686 2.686 0 01-2.372-1.42.625.625 0 00-1.102.59 3.935 3.935 0 003.086 2.061.615.615 0 00-.035.206v2.313H1.25V13.5zm7.711 5.625H7.75v-2.313a.62.62 0 00-.029-.188h1.24a2.489 2.489 0 000 2.5zm2.227 10.906a.72.72 0 01-1.438 0v-6.594a.625.625 0 00-.625-.625H3.552A2.305 2.305 0 011.25 20.51v-.135h8.172c.974 0 1.766.792 1.766 1.766v7.89zm2.937.719h-1.824c.088-.223.136-.465.136-.719v-7.89a3 3 0 00-.573-1.766h2.261V30.75zm2.5 0h-1.25V20.375h1.25V30.75zm3.074 0h-1.824V20.375h2.261a3 3 0 00-.573 1.766v7.89c0 .254.049.496.136.719zm1.176-11.625h-9.75c-.689 0-1.25-.561-1.25-1.25s.561-1.25 1.25-1.25h9.75c.689 0 1.25.561 1.25 1.25s-.561 1.25-1.25 1.25zm3.375-2.312v2.313h-1.211a2.489 2.489 0 000-2.5h1.24a.611.611 0 00-.029.188zm6.5 2.312H25.5v-2.313a.61.61 0 00-.035-.206 3.935 3.935 0 003.086-2.061.624.624 0 10-1.102-.59 2.686 2.686 0 01-2.372 1.42h-3.64a.625.625 0 010-1.25h3.438c.345 0 .625-.28.625-.625 0-1.447 1.178-2.625 2.625-2.625s2.625 1.178 2.625 2.625v5.625z"/><path d="M20.5 0h-9a1.877 1.877 0 00-1.875 1.875V8c0 1.034.841 1.875 1.875 1.875h2.179l1.879 1.879a.623.623 0 00.884 0l1.88-1.879h2.179A1.877 1.877 0 0022.376 8V1.875A1.877 1.877 0 0020.501 0zm.625 8c0 .345-.28.625-.625.625h-2.438a.625.625 0 00-.442.183l-1.621 1.62-1.621-1.621a.625.625 0 00-.442-.183h-2.438a.625.625 0 01-.625-.625V1.874c0-.345.28-.625.625-.625h9c.345 0 .625.28.625.625v6.125z"/><path d="M13.504 4.256a.625.625 0 10-.884.884.625.625 0 00.884-.884zM16.442 4.256a.63.63 0 00-.884 0 .63.63 0 000 .884.63.63 0 00.884 0 .63.63 0 000-.884zM19.379 4.256a.625.625 0 10-.884.884.625.625 0 00.884-.884z"/></symbol><symbol id="icon-twitter" viewBox="0 0 41 32"><path d="M15.844 31.999c-1.626 0-3.299-.132-4.982-.395-2.965-.465-5.966-2.016-6.816-2.48l-2.228-1.218 2.412-.793c2.636-.867 4.24-1.405 6.225-2.247-1.988-.962-3.52-2.694-4.257-4.933l-.561-1.703.46.07a8.39 8.39 0 01-1.048-1.292c-.95-1.442-1.452-3.205-1.345-4.715l.106-1.487.89.345a8.315 8.315 0 01-.806-2.26c-.389-1.936-.063-3.992.916-5.79l.775-1.423 1.037 1.245c3.279 3.939 7.433 6.276 12.363 6.96-.201-1.388-.05-2.727.449-3.928.581-1.398 1.616-2.583 2.99-3.428 1.527-.938 3.378-1.393 5.213-1.28 1.947.12 3.714.849 5.118 2.111.685-.178 1.191-.368 1.873-.625.411-.155.877-.33 1.459-.531l2.148-.74-1.401 4c.092-.008.188-.014.287-.019l2.294-.104-1.355 1.853a2.93 2.93 0 00-.125.178c-.109.165-.245.369-2.106 2.854-.466.622-.698 1.432-.655 2.282.165 3.229-.231 6.15-1.178 8.682-.895 2.396-2.283 4.451-4.124 6.109-2.278 2.051-5.183 3.456-8.634 4.174a26.597 26.597 0 01-5.392.529z"/></symbol><symbol id="icon-plate-cutlery" viewBox="0 0 42 32"><path d="M20.963 4.773c-6.834 0-12.394 5.56-12.394 12.394s5.56 12.394 12.394 12.394c6.834 0 12.394-5.56 12.394-12.394S27.797 4.773 20.963 4.773zm0 23.153c-5.932 0-10.758-4.826-10.758-10.758S15.031 6.41 20.963 6.41c5.932 0 10.758 4.826 10.758 10.758s-4.826 10.758-10.758 10.758z"/><path d="M28.3 13.169a.819.819 0 00-1.11-.326c-.013.007-.026.016-.038.024a.817.817 0 00-.288 1.086 6.72 6.72 0 01-5.901 9.932 6.726 6.726 0 01-6.718-6.718 6.726 6.726 0 017.778-6.635.817.817 0 00.927-.636c.003-.015.007-.029.009-.044a.818.818 0 00-.68-.936 8.38 8.38 0 00-1.316-.103c-4.606 0-8.354 3.748-8.354 8.354s3.748 8.354 8.354 8.354c4.606 0 8.354-3.748 8.354-8.354a8.37 8.37 0 00-1.017-3.998z"/><path d="M26.189 10.333a.837.837 0 00-.739-.223.843.843 0 00-.419.223.76.76 0 00-.176.266.816.816 0 00-.032.095l-.015.057a.773.773 0 000 .319.843.843 0 00.223.418.83.83 0 00.739.224.82.82 0 00.275-.111c.006-.004.013-.007.019-.012a.821.821 0 00.363-.68.82.82 0 00-.24-.578zM41.856 28.881L39.203 7.276A11.422 11.422 0 0037.8 3.023 11.503 11.503 0 0036.145.786l-.071-.075c-.545-.575-1.36-.728-2.077-.39s-1.118 1.064-1.021 1.851l3.363 27.387a2.784 2.784 0 003.098 2.42 2.778 2.778 0 002.295-1.869 2.76 2.76 0 00.126-1.229zM34.599 1.972c-.004-.033-.015-.12.095-.172a.187.187 0 01.079-.02c.061 0 .097.038.113.056l.071.075a9.827 9.827 0 012.622 5.564l1.414 11.515-2.271.279-2.124-17.297zm5.563 27.666a1.143 1.143 0 01-2.2-.279l-1.04-8.467 2.271-.279 1.039 8.466c.024.196-.003.386-.071.558zM10.087.928a.819.819 0 00-.912.712l-.744 6.058a1.948 1.948 0 01-1.823 1.714l-.542-.067.978-7.968a.82.82 0 00-1.624-.2l-.978 7.968-.543-.067a1.947 1.947 0 01-1.354-2.104L3.289.916a.817.817 0 10-1.623-.2L.922 6.774a3.576 3.576 0 001.893 3.619L.032 28.3l-.001.006c-.113.765.083 1.526.552 2.141s1.15 1.007 1.918 1.101l.015.002a2.827 2.827 0 002.135-.61 2.826 2.826 0 001.048-1.958l1.645-18.033a3.575 3.575 0 002.712-3.053l.744-6.058a.82.82 0 00-.712-.912zM4.07 28.836c-.03.33-.188.625-.446.833s-.58.301-.908.26l-.015-.002c-.327-.04-.617-.206-.816-.468s-.283-.584-.235-.909l2.76-17.759.645.079h.002l.645.079-1.631 17.887z"/></symbol></defs></svg>