<svg aria-hidden="true" style="position:absolute;width:0;height:0" xmlns="http://www.w3.org/2000/svg" overflow="hidden"><defs><symbol id="icon-logo" viewBox="0 0 32 32"><path d="M31.467 27.2h-3.068c.303-.401.498-.889.533-1.422l.901-13.511h.567a.533.533 0 00.533-.533v-1.067a1.6 1.6 0 00-1.25-1.558l-.94-1.88a.534.534 0 00-.477-.295V3.201c0-.294.239-.533.533-.533h1.6a.533.533 0 100-1.066h-1.6c-.882 0-1.6.718-1.6 1.6v3.733h-6.933a.533.533 0 00-.477.295l-.94 1.88a1.601 1.601 0 00-1.25 1.558v1.067c0 .294.238.533.533.533h.567l.901 13.511c.036.534.231 1.021.533 1.422h-4.682c.339-.447.547-.997.547-1.6v-1.6a.533.533 0 00-.533-.533h-.631c.06-.167.098-.346.098-.533a1.59 1.59 0 00-.576-1.219c.355-.381.576-.887.576-1.447v-1.6c0-.562-.223-1.07-.579-1.452a1.55 1.55 0 00.558-.95 1.608 1.608 0 00-.079-.798h.634a.533.533 0 00.533-.533v-1.6a3.737 3.737 0 00-3.733-3.733H6.399v-3.2h4.8c.882 0 1.6-.718 1.6-1.6V2.136a.533.533 0 00-.533-.533H6.933c-.882 0-1.6.718-1.6 1.6v6.4H4.8a3.738 3.738 0 00-3.733 3.733v1.6c0 .294.238.533.533.533h.626a1.6 1.6 0 00-.071.268 1.61 1.61 0 00.359 1.301c.059.069.126.127.194.184a2.119 2.119 0 00-.575 1.447v1.6c0 .56.221 1.067.576 1.447a1.592 1.592 0 00-.576 1.219c0 .188.038.366.098.533H1.6a.533.533 0 00-.533.533v1.6c0 .603.209 1.153.547 1.6H.533a.533.533 0 00-.533.533v1.067c0 .882.726 1.6 1.619 1.6h28.763c.893 0 1.619-.718 1.619-1.6v-1.067a.533.533 0 00-.533-.533zm-20.8-24.533h1.067V4.8a.533.533 0 01-.533.533h-.533V2.666zm-2.134 0H9.6v2.667H8.533V2.667zM6.4 3.2c0-.294.239-.533.533-.533h.533v2.667H6.399V3.201zM20.596 8h7.341l.533 1.067h-8.407L20.596 8zM19.2 11.2h-.533v-.533c0-.294.239-.533.533-.533h10.133c.294 0 .533.239.533.533v.533H19.199zm.57 1.067h8.993l-.896 13.439a1.603 1.603 0 01-1.596 1.494h-4.009c-.839 0-1.54-.656-1.596-1.493l-.896-13.44zM2.133 14.4v-1.067A2.67 2.67 0 014.8 10.666h7.467a2.67 2.67 0 012.667 2.667V14.4h-12.8zM12.8 21.333H4.267A1.068 1.068 0 013.2 20.266v-1.6c0-.588.478-1.067 1.067-1.067v1.067c0 .882.718 1.6 1.6 1.6s1.6-.718 1.6-1.6v-1.067h1.067c0 .882.718 1.6 1.6 1.6s1.6-.718 1.6-1.6h1.067c.588 0 1.067.478 1.067 1.067v1.6c0 .588-.478 1.067-1.067 1.067zm1.067 1.6a.533.533 0 01-.533.533h-9.6a.533.533 0 010-1.066h9.6c.294 0 .533.239.533.533zm-4.8-6.4H3.734a.532.532 0 01-.526-.626c.041-.247.296-.44.583-.44h9.543a.532.532 0 01.526.626c-.041.247-.296.44-.583.44h-4.21zm1.6 1.067a.533.533 0 01-1.066 0h1.067zm-4.267 0v1.067a.533.533 0 01-1.066 0V17.6h1.067zm-4.267 6.933h12.8V25.6c0 .882-.718 1.6-1.6 1.6h-9.6c-.882 0-1.6-.718-1.6-1.6v-1.067zm28.8 4.267a.544.544 0 01-.552.533H1.618a.544.544 0 01-.552-.533v-.533h29.867v.533z"/><path d="M24.267 14.933c-1.617 0-2.933 1.316-2.933 2.933s1.316 2.933 2.933 2.933c1.617 0 2.933-1.316 2.933-2.933s-1.316-2.933-2.933-2.933zm0 4.8c-1.029 0-1.867-.837-1.867-1.867s.837-1.867 1.867-1.867 1.867.837 1.867 1.867-.837 1.867-1.867 1.867zM26.133 22.4H22.4a.533.533 0 100 1.066h3.733a.533.533 0 100-1.066zM4.8 11.733h-.533a.533.533 0 100 1.066H4.8a.533.533 0 100-1.066zM7.467 12.267h-.533a.533.533 0 100 1.066h.533a.533.533 0 100-1.066zM10.133 11.733H9.6a.533.533 0 100 1.066h.533a.533.533 0 100-1.066z"/></symbol></defs></svg>